<svg xmlns="http://www.w3.org/2000/svg" version="1.1" xmlns:xlink="http://www.w3.org/1999/xlink" xmlns:svgjs="http://svgjs.dev/svgjs" width="1920" height="1080" preserveAspectRatio="none" viewBox="0 0 1920 1080"><g mask="url(&quot;#SvgjsMask1094&quot;)" fill="none"><rect width="1920" height="1080" x="0" y="0" fill="rgba(140, 233, 255, 1)"></rect><path d="M0 0L896.41 0L0 147.8z" fill="rgba(255, 255, 255, .1)"></path><path d="M0 147.8L896.41 0L943.3299999999999 0L0 165.83z" fill="rgba(255, 255, 255, .075)"></path><path d="M0 165.83L943.3299999999999 0L1495.61 0L0 254.54000000000002z" fill="rgba(255, 255, 255, .05)"></path><path d="M0 254.54000000000002L1495.61 0L1585.8 0L0 417.70000000000005z" fill="rgba(255, 255, 255, .025)"></path><path d="M1920 1080L1227.15 1080L1920 655.8199999999999z" fill="rgba(0, 0, 0, .1)"></path><path d="M1920 655.8199999999999L1227.15 1080L916.4000000000001 1080L1920 562.4399999999999z" fill="rgba(0, 0, 0, .075)"></path><path d="M1920 562.44L916.4 1080L680.38 1080L1920 544.4200000000001z" fill="rgba(0, 0, 0, .05)"></path><path d="M1920 544.4200000000001L680.3799999999999 1080L316.76999999999987 1080L1920 246.31000000000006z" fill="rgba(0, 0, 0, .025)"></path></g><defs><mask id="SvgjsMask1094"><rect width="1920" height="1080" fill="#ffffff"></rect></mask></defs></svg>